<svg width="1778" height="1628" viewBox="0 0 1778 1628" fill="none" xmlns="http://www.w3.org/2000/svg">
<circle cx="1327.5" cy="1369.5" r="258.5" fill="#DFDFDF"/>
<circle cx="1327.5" cy="1369.5" r="154.5" fill="white"/>
<circle cx="1327.5" cy="1369.5" r="86.5" fill="#DFDFDF"/>
<circle cx="1348" cy="430" r="430" fill="#DFDFDF"/>
<circle cx="1348" cy="430" r="257.002" fill="white"/>
<circle cx="1348" cy="430" r="143.888" fill="#DFDFDF"/>
<circle cx="362.5" cy="439.5" r="258.5" fill="#DFDFDF"/>
<circle cx="362.5" cy="439.5" r="154.5" fill="white"/>
<circle cx="362.5" cy="439.5" r="86.5" fill="#DFDFDF"/>
<circle cx="258.5" cy="1317.5" r="258.5" fill="#DFDFDF"/>
<circle cx="258.5" cy="1317.5" r="154.5" fill="white"/>
<circle cx="258.5" cy="1317.5" r="86.5" fill="#DFDFDF"/>
<circle cx="823" cy="1324" r="159" fill="#DFDFDF"/>
<circle cx="823" cy="1324" r="95.0309" fill="white"/>
<circle cx="823" cy="1324" r="53.205" fill="#DFDFDF"/>
<circle cx="462" cy="883" r="159" fill="#DFDFDF"/>
<circle cx="462" cy="883" r="95.0309" fill="white"/>
<circle cx="462" cy="883" r="53.205" fill="#DFDFDF"/>
<circle cx="1187" cy="986" r="104" fill="#DFDFDF"/>
<circle cx="1187" cy="986" r="62.1586" fill="white"/>
<circle cx="1187" cy="986" r="34.8008" fill="#DFDFDF"/>
</svg>
