<svg width="109" height="25" viewBox="0 0 109 25" fill="none" xmlns="http://www.w3.org/2000/svg">
<rect x="0.5" y="0.5" width="108" height="24" rx="5.5" fill="white" stroke="#0077B7"/>
<path d="M24.1004 2H6.89962C5.8505 2 5 2.8505 5 3.89962V21.1003C5 22.1495 5.8505 23 6.89962 23H24.1003C25.1495 23 26 22.1495 26 21.1003V3.89962C26 2.8505 25.1495 2 24.1004 2ZM11.4983 20.1328C11.4983 20.4381 11.2508 20.6856 10.9455 20.6856H8.59226C8.28694 20.6856 8.03945 20.4381 8.03945 20.1328V10.2682C8.03945 9.9629 8.28694 9.71541 8.59226 9.71541H10.9455C11.2508 9.71541 11.4983 9.9629 11.4983 10.2682V20.1328ZM9.76887 8.78553C8.53421 8.78553 7.5333 7.78462 7.5333 6.54996C7.5333 5.31531 8.53421 4.3144 9.76887 4.3144C11.0035 4.3144 12.0044 5.31531 12.0044 6.54996C12.0044 7.78462 11.0036 8.78553 9.76887 8.78553ZM23.7961 20.1773C23.7961 20.458 23.5685 20.6856 23.2878 20.6856H20.7626C20.4819 20.6856 20.2544 20.458 20.2544 20.1773V15.5503C20.2544 14.86 20.4568 12.5256 18.4505 12.5256C16.8942 12.5256 16.5786 14.1234 16.5152 14.8405V20.1773C16.5152 20.458 16.2877 20.6856 16.0069 20.6856H13.5646C13.284 20.6856 13.0564 20.458 13.0564 20.1773V10.2237C13.0564 9.943 13.284 9.71541 13.5646 9.71541H16.0069C16.2876 9.71541 16.5152 9.943 16.5152 10.2237V11.0843C17.0923 10.2183 17.9499 9.54988 19.7758 9.54988C23.8192 9.54988 23.7961 13.3275 23.7961 15.4031V20.1773Z" fill="#0077B7"/>
<path d="M39.1841 7.89697L40.3618 4.24512H41.1924L39.4873 9H38.8677L37.145 4.24512H37.9756L39.1841 7.89697ZM42.8579 9H42.0449V4.24512H42.8579V9ZM41.979 2.98389C41.979 2.85205 42.0186 2.74072 42.0977 2.6499C42.1797 2.55908 42.2998 2.51367 42.458 2.51367C42.6162 2.51367 42.7363 2.55908 42.8184 2.6499C42.9004 2.74072 42.9414 2.85205 42.9414 2.98389C42.9414 3.11572 42.9004 3.22559 42.8184 3.31348C42.7363 3.40137 42.6162 3.44531 42.458 3.44531C42.2998 3.44531 42.1797 3.40137 42.0977 3.31348C42.0186 3.22559 41.979 3.11572 41.979 2.98389ZM46.1362 9.08789C45.4917 9.08789 44.9673 8.87695 44.563 8.45508C44.1587 8.03027 43.9565 7.46338 43.9565 6.75439V6.60498C43.9565 6.1333 44.0459 5.71289 44.2246 5.34375C44.4062 4.97168 44.6582 4.68164 44.9805 4.47363C45.3057 4.2627 45.6572 4.15723 46.0352 4.15723C46.6533 4.15723 47.1338 4.36084 47.4766 4.76807C47.8193 5.17529 47.9907 5.7583 47.9907 6.51709V6.85547H44.7695C44.7812 7.32422 44.9175 7.70361 45.1782 7.99365C45.4419 8.28076 45.7759 8.42432 46.1802 8.42432C46.4673 8.42432 46.7104 8.36572 46.9097 8.24854C47.1089 8.13135 47.2832 7.97607 47.4326 7.78271L47.9292 8.16943C47.5308 8.78174 46.9331 9.08789 46.1362 9.08789ZM46.0352 4.8252C45.707 4.8252 45.4316 4.94531 45.209 5.18555C44.9863 5.42285 44.8486 5.75684 44.7959 6.1875H47.1777V6.12598C47.1543 5.71289 47.043 5.39355 46.8438 5.16797C46.6445 4.93945 46.375 4.8252 46.0352 4.8252ZM53.1455 7.87939L54.0596 4.24512H54.8726L53.4883 9H52.8291L51.6733 5.39648L50.5483 9H49.8892L48.5093 4.24512H49.3179L50.2539 7.80469L51.3613 4.24512H52.0161L53.1455 7.87939ZM58.7002 4.24512L58.7222 4.77246C59.0708 4.3623 59.541 4.15723 60.1328 4.15723C60.7979 4.15723 61.2505 4.41211 61.4907 4.92188C61.6489 4.69336 61.854 4.50879 62.106 4.36816C62.3608 4.22754 62.6611 4.15723 63.0068 4.15723C64.0498 4.15723 64.5801 4.70947 64.5977 5.81396V9H63.7847V5.8623C63.7847 5.52246 63.707 5.26904 63.5518 5.10205C63.3965 4.93213 63.1357 4.84717 62.7695 4.84717C62.4678 4.84717 62.2173 4.93799 62.0181 5.11963C61.8188 5.29834 61.7031 5.54004 61.6709 5.84473V9H60.8535V5.88428C60.8535 5.19287 60.5151 4.84717 59.8384 4.84717C59.3052 4.84717 58.9404 5.07422 58.7441 5.52832V9H57.9312V4.24512H58.7002ZM67.3838 7.80908L68.4912 4.24512H69.3613L67.4497 9.73389C67.1538 10.5249 66.6836 10.9204 66.0391 10.9204L65.8853 10.9072L65.582 10.8501V10.1909L65.8018 10.2085C66.0771 10.2085 66.291 10.1528 66.4434 10.0415C66.5986 9.93018 66.7261 9.72656 66.8257 9.43066L67.0059 8.94727L65.3096 4.24512H66.1973L67.3838 7.80908ZM76.3398 6.67529C76.3398 7.39893 76.1743 7.98193 75.8433 8.42432C75.5122 8.8667 75.064 9.08789 74.4985 9.08789C73.9214 9.08789 73.4673 8.90479 73.1362 8.53857V10.8281H72.3232V4.24512H73.0659L73.1055 4.77246C73.4365 4.3623 73.8965 4.15723 74.4854 4.15723C75.0566 4.15723 75.5078 4.37256 75.8389 4.80322C76.1729 5.23389 76.3398 5.83301 76.3398 6.60059V6.67529ZM75.5269 6.58301C75.5269 6.04688 75.4126 5.62354 75.1841 5.31299C74.9556 5.00244 74.6421 4.84717 74.2437 4.84717C73.7515 4.84717 73.3823 5.06543 73.1362 5.50195V7.77393C73.3794 8.20752 73.7515 8.42432 74.2524 8.42432C74.6421 8.42432 74.9512 8.27051 75.1797 7.96289C75.4111 7.65234 75.5269 7.19238 75.5269 6.58301ZM79.6753 4.97461C79.5522 4.9541 79.4189 4.94385 79.2754 4.94385C78.7422 4.94385 78.3804 5.1709 78.1899 5.625V9H77.377V4.24512H78.168L78.1812 4.79443C78.4478 4.36963 78.8257 4.15723 79.3149 4.15723C79.4731 4.15723 79.5933 4.17773 79.6753 4.21875V4.97461ZM80.1235 6.57861C80.1235 6.11279 80.2144 5.69385 80.396 5.32178C80.5806 4.94971 80.8354 4.6626 81.1606 4.46045C81.4888 4.2583 81.8623 4.15723 82.2812 4.15723C82.9287 4.15723 83.4517 4.38135 83.8501 4.82959C84.2515 5.27783 84.4521 5.87402 84.4521 6.61816V6.67529C84.4521 7.13818 84.3628 7.5542 84.1841 7.92334C84.0083 8.28955 83.7549 8.5752 83.4238 8.78027C83.0957 8.98535 82.7178 9.08789 82.29 9.08789C81.6455 9.08789 81.1226 8.86377 80.7212 8.41553C80.3228 7.96729 80.1235 7.37402 80.1235 6.63574V6.57861ZM80.9409 6.67529C80.9409 7.20264 81.0625 7.62598 81.3057 7.94531C81.5518 8.26465 81.8799 8.42432 82.29 8.42432C82.7031 8.42432 83.0312 8.26318 83.2744 7.94092C83.5176 7.61572 83.6392 7.16162 83.6392 6.57861C83.6392 6.05713 83.5146 5.63525 83.2656 5.31299C83.0195 4.98779 82.6914 4.8252 82.2812 4.8252C81.8799 4.8252 81.5562 4.98486 81.3101 5.3042C81.064 5.62354 80.9409 6.08057 80.9409 6.67529ZM85.7441 9V4.87354H84.9927V4.24512H85.7441V3.84082C85.7441 3.31055 85.895 2.89746 86.1968 2.60156C86.5015 2.30566 86.9307 2.15771 87.4844 2.15771C87.8125 2.15771 88.2271 2.24707 88.728 2.42578L88.5918 3.11133C88.2256 2.96484 87.877 2.8916 87.5459 2.8916C87.1973 2.8916 86.9453 2.9707 86.79 3.12891C86.6377 3.28418 86.5615 3.51855 86.5615 3.83203V4.24512H87.5327V4.87354H86.5615V9H85.7441ZM89.1323 9H88.3149V4.24512H89.1323V9ZM91.3384 9H90.5254V2.25H91.3384V9ZM94.6167 9.08789C93.9722 9.08789 93.4478 8.87695 93.0435 8.45508C92.6392 8.03027 92.437 7.46338 92.437 6.75439V6.60498C92.437 6.1333 92.5264 5.71289 92.7051 5.34375C92.8867 4.97168 93.1387 4.68164 93.4609 4.47363C93.7861 4.2627 94.1377 4.15723 94.5156 4.15723C95.1338 4.15723 95.6143 4.36084 95.957 4.76807C96.2998 5.17529 96.4712 5.7583 96.4712 6.51709V6.85547H93.25C93.2617 7.32422 93.3979 7.70361 93.6587 7.99365C93.9224 8.28076 94.2563 8.42432 94.6606 8.42432C94.9478 8.42432 95.1909 8.36572 95.3901 8.24854C95.5894 8.13135 95.7637 7.97607 95.9131 7.78271L96.4097 8.16943C96.0112 8.78174 95.4136 9.08789 94.6167 9.08789ZM94.5156 4.8252C94.1875 4.8252 93.9121 4.94531 93.6895 5.18555C93.4668 5.42285 93.3291 5.75684 93.2764 6.1875H95.6582V6.12598C95.6348 5.71289 95.5234 5.39355 95.3242 5.16797C95.125 4.93945 94.8555 4.8252 94.5156 4.8252Z" fill="black"/>
<path d="M38.8945 17.3027H35.5195V19.5879H39.4805V21H33.7617V12.4688H39.4688V13.8926H35.5195V15.9258H38.8945V17.3027ZM40.0195 17.7832C40.0195 16.7949 40.2402 16.0078 40.6816 15.4219C41.127 14.8359 41.7344 14.543 42.5039 14.543C43.1211 14.543 43.6309 14.7734 44.0332 15.2344V12H45.7324V21H44.2031L44.1211 20.3262C43.6992 20.8535 43.1562 21.1172 42.4922 21.1172C41.7461 21.1172 41.1465 20.8242 40.6934 20.2383C40.2441 19.6484 40.0195 18.8301 40.0195 17.7832ZM41.7129 17.9062C41.7129 18.5 41.8164 18.9551 42.0234 19.2715C42.2305 19.5879 42.5312 19.7461 42.9258 19.7461C43.4492 19.7461 43.8184 19.5254 44.0332 19.084V16.582C43.8223 16.1406 43.457 15.9199 42.9375 15.9199C42.1211 15.9199 41.7129 16.582 41.7129 17.9062ZM50.8418 20.3555C50.4238 20.8633 49.8457 21.1172 49.1074 21.1172C48.4277 21.1172 47.9082 20.9219 47.5488 20.5312C47.1934 20.1406 47.0117 19.5684 47.0039 18.8145V14.6602H48.6973V18.7559C48.6973 19.416 48.998 19.7461 49.5996 19.7461C50.1738 19.7461 50.5684 19.5469 50.7832 19.1484V14.6602H52.4824V21H50.8887L50.8418 20.3555ZM57.4336 21C57.3555 20.8477 57.2988 20.6582 57.2637 20.4316C56.8535 20.8887 56.3203 21.1172 55.6641 21.1172C55.043 21.1172 54.5273 20.9375 54.1172 20.5781C53.7109 20.2188 53.5078 19.7656 53.5078 19.2188C53.5078 18.5469 53.7559 18.0312 54.252 17.6719C54.752 17.3125 55.4727 17.1309 56.4141 17.127H57.1934V16.7637C57.1934 16.4707 57.1172 16.2363 56.9648 16.0605C56.8164 15.8848 56.5801 15.7969 56.2559 15.7969C55.9707 15.7969 55.7461 15.8652 55.582 16.002C55.4219 16.1387 55.3418 16.3262 55.3418 16.5645H53.6484C53.6484 16.1973 53.7617 15.8574 53.9883 15.5449C54.2148 15.2324 54.5352 14.9883 54.9492 14.8125C55.3633 14.6328 55.8281 14.543 56.3438 14.543C57.125 14.543 57.7441 14.7402 58.2012 15.1348C58.6621 15.5254 58.8926 16.0762 58.8926 16.7871V19.5352C58.8965 20.1367 58.9805 20.5918 59.1445 20.9004V21H57.4336ZM56.0332 19.8223C56.2832 19.8223 56.5137 19.7676 56.7246 19.6582C56.9355 19.5449 57.0918 19.3945 57.1934 19.207V18.1172H56.5605C55.7129 18.1172 55.2617 18.4102 55.207 18.9961L55.2012 19.0957C55.2012 19.3066 55.2754 19.4805 55.4238 19.6172C55.5723 19.7539 55.7754 19.8223 56.0332 19.8223ZM63.7559 16.248C63.5254 16.2168 63.3223 16.2012 63.1465 16.2012C62.5059 16.2012 62.0859 16.418 61.8867 16.8516V21H60.1934V14.6602H61.793L61.8398 15.416C62.1797 14.834 62.6504 14.543 63.252 14.543C63.4395 14.543 63.6152 14.5684 63.7793 14.6191L63.7559 16.248ZM64.1953 17.7832C64.1953 16.7949 64.416 16.0078 64.8574 15.4219C65.3027 14.8359 65.9102 14.543 66.6797 14.543C67.2969 14.543 67.8066 14.7734 68.209 15.2344V12H69.9082V21H68.3789L68.2969 20.3262C67.875 20.8535 67.332 21.1172 66.668 21.1172C65.9219 21.1172 65.3223 20.8242 64.8691 20.2383C64.4199 19.6484 64.1953 18.8301 64.1953 17.7832ZM65.8887 17.9062C65.8887 18.5 65.9922 18.9551 66.1992 19.2715C66.4062 19.5879 66.707 19.7461 67.1016 19.7461C67.625 19.7461 67.9941 19.5254 68.209 19.084V16.582C67.998 16.1406 67.6328 15.9199 67.1133 15.9199C66.2969 15.9199 65.8887 16.582 65.8887 17.9062ZM70.957 17.7715C70.957 17.1426 71.0781 16.582 71.3203 16.0898C71.5625 15.5977 71.9102 15.2168 72.3633 14.9473C72.8203 14.6777 73.3496 14.543 73.9512 14.543C74.8066 14.543 75.5039 14.8047 76.043 15.3281C76.5859 15.8516 76.8887 16.5625 76.9512 17.4609L76.9629 17.8945C76.9629 18.8672 76.6914 19.6484 76.1484 20.2383C75.6055 20.8242 74.877 21.1172 73.9629 21.1172C73.0488 21.1172 72.3184 20.8242 71.7715 20.2383C71.2285 19.6523 70.957 18.8555 70.957 17.8477V17.7715ZM72.6504 17.8945C72.6504 18.4961 72.7637 18.957 72.9902 19.2773C73.2168 19.5938 73.541 19.752 73.9629 19.752C74.373 19.752 74.6934 19.5957 74.9238 19.2832C75.1543 18.9668 75.2695 18.4629 75.2695 17.7715C75.2695 17.1816 75.1543 16.7246 74.9238 16.4004C74.6934 16.0762 74.3691 15.9141 73.9512 15.9141C73.5371 15.9141 73.2168 16.0762 72.9902 16.4004C72.7637 16.7207 72.6504 17.2188 72.6504 17.8945ZM82.8633 19.5879H86.5957V21H81.1055V12.4688H82.8633V19.5879ZM89.2852 21H87.5859V14.6602H89.2852V21ZM87.4863 13.0195C87.4863 12.7656 87.5703 12.5566 87.7383 12.3926C87.9102 12.2285 88.1426 12.1465 88.4355 12.1465C88.7246 12.1465 88.9551 12.2285 89.127 12.3926C89.2988 12.5566 89.3848 12.7656 89.3848 13.0195C89.3848 13.2773 89.2969 13.4883 89.1211 13.6523C88.9492 13.8164 88.7207 13.8984 88.4355 13.8984C88.1504 13.8984 87.9199 13.8164 87.7441 13.6523C87.5723 13.4883 87.4863 13.2773 87.4863 13.0195ZM92.2734 14.6602L92.3262 15.3691C92.7754 14.8184 93.3828 14.543 94.1484 14.543C94.9648 14.543 95.5254 14.8652 95.8301 15.5098C96.2754 14.8652 96.9102 14.543 97.7344 14.543C98.4219 14.543 98.9336 14.7441 99.2695 15.1465C99.6055 15.5449 99.7734 16.1465 99.7734 16.9512V21H98.0742V16.957C98.0742 16.5977 98.0039 16.3359 97.8633 16.1719C97.7227 16.0039 97.4746 15.9199 97.1191 15.9199C96.6113 15.9199 96.2598 16.1621 96.0645 16.6465L96.0703 21H94.377V16.9629C94.377 16.5957 94.3047 16.3301 94.1602 16.166C94.0156 16.002 93.7695 15.9199 93.4219 15.9199C92.9414 15.9199 92.5938 16.1191 92.3789 16.5176V21H90.6855V14.6602H92.2734ZM104.754 21C104.676 20.8477 104.619 20.6582 104.584 20.4316C104.174 20.8887 103.641 21.1172 102.984 21.1172C102.363 21.1172 101.848 20.9375 101.438 20.5781C101.031 20.2188 100.828 19.7656 100.828 19.2188C100.828 18.5469 101.076 18.0312 101.572 17.6719C102.072 17.3125 102.793 17.1309 103.734 17.127H104.514V16.7637C104.514 16.4707 104.438 16.2363 104.285 16.0605C104.137 15.8848 103.9 15.7969 103.576 15.7969C103.291 15.7969 103.066 15.8652 102.902 16.002C102.742 16.1387 102.662 16.3262 102.662 16.5645H100.969C100.969 16.1973 101.082 15.8574 101.309 15.5449C101.535 15.2324 101.855 14.9883 102.27 14.8125C102.684 14.6328 103.148 14.543 103.664 14.543C104.445 14.543 105.064 14.7402 105.521 15.1348C105.982 15.5254 106.213 16.0762 106.213 16.7871V19.5352C106.217 20.1367 106.301 20.5918 106.465 20.9004V21H104.754ZM103.354 19.8223C103.604 19.8223 103.834 19.7676 104.045 19.6582C104.256 19.5449 104.412 19.3945 104.514 19.207V18.1172H103.881C103.033 18.1172 102.582 18.4102 102.527 18.9961L102.521 19.0957C102.521 19.3066 102.596 19.4805 102.744 19.6172C102.893 19.7539 103.096 19.8223 103.354 19.8223Z" fill="#0077B7"/>
</svg>
